<svg xmlns="http://www.w3.org/2000/svg" viewBox="0 0 32 32" width="32" height="32">
  <!-- Outer burst -->
  <polygon points="16,0 19,10 28,4 21,13 32,16 21,19 28,28 19,22 16,32 13,22 4,28 11,19 0,16 11,13 4,4 13,10" fill="#ff3300"/>
  <!-- Inner glow -->
  <polygon points="16,5 18,12 24,8 20,14 27,16 20,18 24,24 18,20 16,27 14,20 8,24 12,18 5,16 12,14 8,8 14,12" fill="#ff8800"/>
  <!-- Core -->
  <circle cx="16" cy="16" r="5" fill="#ffcc00"/>
  <circle cx="16" cy="16" r="2.5" fill="#fff" opacity="0.8"/>
</svg>
