<svg xmlns="http://www.w3.org/2000/svg" viewBox="0 0 48 48" width="48" height="48">
  <!-- Tower base -->
  <rect x="12" y="20" width="24" height="26" fill="#9933cc"/>
  <rect x="10" y="42" width="28" height="4" rx="1" fill="#7722aa"/>
  <!-- Battlements -->
  <rect x="10" y="18" width="6" height="6" fill="#9933cc"/>
  <rect x="21" y="18" width="6" height="6" fill="#9933cc"/>
  <rect x="32" y="18" width="6" height="6" fill="#9933cc"/>
  <!-- Roof / spire -->
  <polygon points="24,2 14,20 34,20" fill="#7722aa"/>
  <!-- Eye of the oracle -->
  <circle cx="24" cy="30" r="6" fill="#1a0a2a" stroke="#cc88ff" stroke-width="1"/>
  <circle cx="24" cy="30" r="3" fill="#cc88ff" opacity="0.8"/>
  <circle cx="24" cy="30" r="1.2" fill="#fff"/>
  <!-- Window slits -->
  <rect x="16" y="34" width="2" height="5" rx="0.5" fill="#cc88ff" opacity="0.4"/>
  <rect x="30" y="34" width="2" height="5" rx="0.5" fill="#cc88ff" opacity="0.4"/>
  <!-- Star on top -->
  <polygon points="24,3 25,6 28,6 25.5,8 26.5,11 24,9 21.5,11 22.5,8 20,6 23,6" fill="#ffdd44" opacity="0.9"/>
</svg>
